<?xml version="1.0" encoding="UTF-8"?> <svg xmlns="http://www.w3.org/2000/svg" width="274" height="48" viewBox="0 0 274 48" fill="none"><g clip-path="url(#clip0)"><path d="M195.174 26.49V32H191.868C189.512 32 187.675 31.43 186.358 30.29C185.041 29.1247 184.382 27.2373 184.382 24.628V16.192H181.798V10.796H184.382V5.62801H190.88V10.796H195.136V16.192H190.88V24.704C190.88 25.3373 191.032 25.7933 191.336 26.072C191.64 26.3507 192.147 26.49 192.856 26.49H195.174Z" fill="#007FFF"></path><path d="M218.782 21.056C218.782 21.664 218.744 22.2973 218.668 22.956H203.962C204.063 24.2733 204.481 25.2867 205.216 25.996C205.976 26.68 206.9 27.022 207.99 27.022C209.611 27.022 210.738 26.338 211.372 24.97H218.288C217.933 26.3633 217.287 27.6173 216.35 28.732C215.438 29.8467 214.285 30.7207 212.892 31.354C211.498 31.9873 209.94 32.304 208.218 32.304C206.14 32.304 204.291 31.8607 202.67 30.974C201.048 30.0873 199.782 28.8207 198.87 27.174C197.958 25.5273 197.502 23.602 197.502 21.398C197.502 19.194 197.945 17.2687 198.832 15.622C199.744 13.9753 201.01 12.7087 202.632 11.822C204.253 10.9353 206.115 10.492 208.218 10.492C210.27 10.492 212.094 10.9227 213.69 11.784C215.286 12.6453 216.527 13.874 217.414 15.47C218.326 17.066 218.782 18.928 218.782 21.056ZM212.132 19.346C212.132 18.2313 211.752 17.3447 210.992 16.686C210.232 16.0273 209.282 15.698 208.142 15.698C207.052 15.698 206.128 16.0147 205.368 16.648C204.633 17.2813 204.177 18.1807 204 19.346H212.132Z" fill="#007FFF"></path><path d="M220.918 21.398C220.918 19.194 221.361 17.2687 222.248 15.622C223.16 13.9753 224.414 12.7087 226.01 11.822C227.631 10.9353 229.48 10.492 231.558 10.492C234.218 10.492 236.434 11.1887 238.208 12.582C240.006 13.9753 241.184 15.9387 241.742 18.472H234.826C234.243 16.8507 233.116 16.04 231.444 16.04C230.253 16.04 229.303 16.5087 228.594 17.446C227.884 18.358 227.53 19.6753 227.53 21.398C227.53 23.1207 227.884 24.4507 228.594 25.388C229.303 26.3 230.253 26.756 231.444 26.756C233.116 26.756 234.243 25.9453 234.826 24.324H241.742C241.184 26.8067 240.006 28.7573 238.208 30.176C236.409 31.5947 234.192 32.304 231.558 32.304C229.48 32.304 227.631 31.8607 226.01 30.974C224.414 30.0873 223.16 28.8207 222.248 27.174C221.361 25.5273 220.918 23.602 220.918 21.398Z" fill="#007FFF"></path><path d="M258.251 10.568C260.683 10.568 262.634 11.3787 264.103 13C265.573 14.596 266.307 16.8 266.307 19.612V32H259.847V20.486C259.847 19.0673 259.48 17.9653 258.745 17.18C258.011 16.3947 257.023 16.002 255.781 16.002C254.54 16.002 253.552 16.3947 252.817 17.18C252.083 17.9653 251.715 19.0673 251.715 20.486V32H245.217V3.88H251.715V13.646C252.374 12.7087 253.273 11.9613 254.413 11.404C255.553 10.8467 256.833 10.568 258.251 10.568Z" fill="#007FFF"></path><path d="M65.996 16.192H62.5V32H56.002V16.192H53.646V10.796H56.002V10.188C56.002 7.57867 56.7493 5.60267 58.244 4.26001C59.7387 2.89201 61.93 2.20801 64.818 2.20801C65.2993 2.20801 65.654 2.22067 65.882 2.24601V7.75601C64.6407 7.68001 63.7667 7.85734 63.26 8.28801C62.7533 8.71867 62.5 9.49134 62.5 10.606V10.796H65.996V16.192Z" fill="#333333"></path><path d="M67.7574 21.36C67.7574 19.1813 68.1627 17.2687 68.9734 15.622C69.8094 13.9753 70.9367 12.7087 72.3554 11.822C73.774 10.9353 75.3574 10.492 77.1054 10.492C78.6 10.492 79.9047 10.796 81.0194 11.404C82.1594 12.012 83.0334 12.81 83.6414 13.798V10.796H90.1394V32H83.6414V28.998C83.008 29.986 82.1214 30.784 80.9814 31.392C79.8667 32 78.562 32.304 77.0674 32.304C75.3447 32.304 73.774 31.8607 72.3554 30.974C70.9367 30.062 69.8094 28.7827 68.9734 27.136C68.1627 25.464 67.7574 23.5387 67.7574 21.36ZM83.6414 21.398C83.6414 19.7767 83.1854 18.4973 82.2734 17.56C81.3867 16.6227 80.2974 16.154 79.0054 16.154C77.7134 16.154 76.6114 16.6227 75.6994 17.56C74.8127 18.472 74.3694 19.7387 74.3694 21.36C74.3694 22.9813 74.8127 24.2733 75.6994 25.236C76.6114 26.1733 77.7134 26.642 79.0054 26.642C80.2974 26.642 81.3867 26.1733 82.2734 25.236C83.1854 24.2987 83.6414 23.0193 83.6414 21.398Z" fill="#333333"></path><path d="M107.76 10.568C110.243 10.568 112.219 11.3787 113.688 13C115.183 14.596 115.93 16.8 115.93 19.612V32H109.47V20.486C109.47 19.0673 109.103 17.9653 108.368 17.18C107.634 16.3947 106.646 16.002 105.404 16.002C104.163 16.002 103.175 16.3947 102.44 17.18C101.706 17.9653 101.338 19.0673 101.338 20.486V32H94.8404V10.796H101.338V13.608C101.997 12.6707 102.884 11.936 103.998 11.404C105.113 10.8467 106.367 10.568 107.76 10.568Z" fill="#333333"></path><path d="M132.264 26.49V32H128.958C126.602 32 124.765 31.43 123.448 30.29C122.131 29.1247 121.472 27.2373 121.472 24.628V16.192H118.888V10.796H121.472V5.62801H127.97V10.796H132.226V16.192H127.97V24.704C127.97 25.3373 128.122 25.7933 128.426 26.072C128.73 26.3507 129.237 26.49 129.946 26.49H132.264Z" fill="#333333"></path><path d="M134.591 21.36C134.591 19.1813 134.997 17.2687 135.807 15.622C136.643 13.9753 137.771 12.7087 139.189 11.822C140.608 10.9353 142.191 10.492 143.939 10.492C145.434 10.492 146.739 10.796 147.853 11.404C148.993 12.012 149.867 12.81 150.475 13.798V10.796H156.973V32H150.475V28.998C149.842 29.986 148.955 30.784 147.815 31.392C146.701 32 145.396 32.304 143.901 32.304C142.179 32.304 140.608 31.8607 139.189 30.974C137.771 30.062 136.643 28.7827 135.807 27.136C134.997 25.464 134.591 23.5387 134.591 21.36ZM150.475 21.398C150.475 19.7767 150.019 18.4973 149.107 17.56C148.221 16.6227 147.131 16.154 145.839 16.154C144.547 16.154 143.445 16.6227 142.533 17.56C141.647 18.472 141.203 19.7387 141.203 21.36C141.203 22.9813 141.647 24.2733 142.533 25.236C143.445 26.1733 144.547 26.642 145.839 26.642C147.131 26.642 148.221 26.1733 149.107 25.236C150.019 24.2987 150.475 23.0193 150.475 21.398Z" fill="#333333"></path><path d="M170.3 32.304C168.451 32.304 166.804 31.9873 165.36 31.354C163.916 30.7207 162.776 29.8593 161.94 28.77C161.104 27.6553 160.636 26.414 160.534 25.046H166.956C167.032 25.7807 167.374 26.376 167.982 26.832C168.59 27.288 169.338 27.516 170.224 27.516C171.035 27.516 171.656 27.364 172.086 27.06C172.542 26.7307 172.77 26.3127 172.77 25.806C172.77 25.198 172.454 24.7547 171.82 24.476C171.187 24.172 170.161 23.8427 168.742 23.488C167.222 23.1333 165.956 22.766 164.942 22.386C163.929 21.9807 163.055 21.36 162.32 20.524C161.586 19.6627 161.218 18.51 161.218 17.066C161.218 15.85 161.548 14.748 162.206 13.76C162.89 12.7467 163.878 11.9487 165.17 11.366C166.488 10.7833 168.046 10.492 169.844 10.492C172.504 10.492 174.594 11.1507 176.114 12.468C177.66 13.7853 178.546 15.5333 178.774 17.712H172.77C172.669 16.9773 172.34 16.3947 171.782 15.964C171.25 15.5333 170.541 15.318 169.654 15.318C168.894 15.318 168.312 15.47 167.906 15.774C167.501 16.0527 167.298 16.4453 167.298 16.952C167.298 17.56 167.615 18.016 168.248 18.32C168.907 18.624 169.92 18.928 171.288 19.232C172.859 19.6373 174.138 20.0427 175.126 20.448C176.114 20.828 176.976 21.4613 177.71 22.348C178.47 23.2093 178.863 24.3747 178.888 25.844C178.888 27.0853 178.534 28.2 177.824 29.188C177.14 30.1507 176.14 30.9107 174.822 31.468C173.53 32.0253 172.023 32.304 170.3 32.304Z" fill="#333333"></path><path d="M57.103 37.355C57.8143 37.355 58.4303 37.476 58.951 37.718C59.4717 37.96 59.8677 38.3083 60.139 38.763C60.4177 39.2177 60.557 39.7567 60.557 40.38C60.557 40.666 60.5313 40.941 60.48 41.205C60.3407 41.9823 60.0547 42.657 59.622 43.229C59.1893 43.801 58.6393 44.241 57.972 44.549C57.3047 44.8497 56.564 45 55.75 45H53.253L54.606 37.355H57.103ZM55.926 44.043C56.8133 44.043 57.5393 43.79 58.104 43.284C58.676 42.778 59.039 42.085 59.193 41.205C59.237 40.9483 59.259 40.71 59.259 40.49C59.259 39.8153 59.061 39.2947 58.665 38.928C58.269 38.554 57.6897 38.367 56.927 38.367H55.684L54.683 44.043H55.926Z" fill="#333333"></path><path d="M64.7478 38.84C65.5032 38.84 66.1045 39.0527 66.5518 39.478C67.0065 39.9033 67.2338 40.4753 67.2338 41.194C67.2338 41.3627 67.2155 41.5643 67.1788 41.799C67.1495 41.9603 67.0982 42.1583 67.0248 42.393H62.3938C62.3865 42.4443 62.3828 42.5213 62.3828 42.624C62.3828 43.0567 62.5148 43.4013 62.7788 43.658C63.0502 43.9147 63.4022 44.043 63.8348 44.043C64.5168 44.043 65.0412 43.7607 65.4078 43.196H66.7608C66.4822 43.7533 66.0715 44.2117 65.5288 44.571C64.9862 44.923 64.3592 45.099 63.6478 45.099C63.1418 45.099 62.6982 45 62.3168 44.802C61.9355 44.604 61.6385 44.3217 61.4258 43.955C61.2132 43.581 61.1068 43.1447 61.1068 42.646C61.1068 42.4333 61.1288 42.206 61.1728 41.964C61.2828 41.3407 61.5065 40.7943 61.8438 40.325C62.1812 39.8483 62.5992 39.4817 63.0978 39.225C63.6038 38.9683 64.1538 38.84 64.7478 38.84ZM65.9248 41.491C65.9395 41.359 65.9468 41.2637 65.9468 41.205C65.9468 40.8017 65.8112 40.4827 65.5398 40.248C65.2758 40.0133 64.9312 39.896 64.5058 39.896C64.0585 39.896 63.6552 40.039 63.2958 40.325C62.9365 40.611 62.6908 40.9997 62.5588 41.491H65.9248Z" fill="#333333"></path><path d="M70.0739 45.099C69.6559 45.099 69.2745 45.0293 68.9299 44.89C68.5852 44.7433 68.3139 44.5417 68.1159 44.285C67.9179 44.021 67.8189 43.7203 67.8189 43.383C67.8189 43.3243 67.8262 43.2437 67.8409 43.141H69.0619C69.0325 43.4197 69.1169 43.6507 69.3149 43.834C69.5129 44.0173 69.7915 44.109 70.1509 44.109C70.5029 44.109 70.7925 44.0467 71.0199 43.922C71.2472 43.7973 71.3609 43.614 71.3609 43.372C71.3609 43.1667 71.2655 43.0017 71.0749 42.877C70.8915 42.7523 70.5945 42.613 70.1839 42.459C69.7952 42.305 69.4799 42.162 69.2379 42.03C68.9959 41.898 68.7869 41.7183 68.6109 41.491C68.4349 41.2563 68.3469 40.9667 68.3469 40.622C68.3469 40.27 68.4459 39.962 68.6439 39.698C68.8492 39.4267 69.1315 39.2177 69.4909 39.071C69.8575 38.917 70.2755 38.84 70.7449 38.84C71.1702 38.84 71.5479 38.9133 71.8779 39.06C72.2152 39.1993 72.4755 39.401 72.6589 39.665C72.8495 39.9217 72.9449 40.2187 72.9449 40.556C72.9449 40.6587 72.9412 40.7357 72.9339 40.787H71.7459C71.7752 40.501 71.6909 40.27 71.4929 40.094C71.3022 39.918 71.0272 39.83 70.6679 39.83C70.3525 39.83 70.0959 39.896 69.8979 40.028C69.7072 40.16 69.6119 40.3397 69.6119 40.567C69.6119 40.7943 69.7109 40.9777 69.9089 41.117C70.1069 41.249 70.4112 41.3957 70.8219 41.557C71.1959 41.7037 71.5002 41.843 71.7349 41.975C71.9695 42.107 72.1712 42.283 72.3399 42.503C72.5085 42.723 72.5929 42.998 72.5929 43.328C72.5929 43.6873 72.4829 44.0027 72.2629 44.274C72.0502 44.538 71.7532 44.7433 71.3719 44.89C70.9905 45.0293 70.5579 45.099 70.0739 45.099Z" fill="#333333"></path><path d="M75.5649 38.136C75.3669 38.136 75.2055 38.0737 75.0809 37.949C74.9562 37.8243 74.8939 37.6667 74.8939 37.476C74.8939 37.2193 74.9892 36.9993 75.1799 36.816C75.3779 36.6253 75.6015 36.53 75.8509 36.53C76.0489 36.53 76.2065 36.5923 76.3239 36.717C76.4485 36.8417 76.5109 36.9993 76.5109 37.19C76.5109 37.4467 76.4155 37.6703 76.2249 37.861C76.0342 38.0443 75.8142 38.136 75.5649 38.136ZM76.0379 38.939L74.9709 45H73.7169L74.7839 38.939H76.0379Z" fill="#333333"></path><path d="M80.1482 38.84C80.6176 38.84 81.0172 38.9353 81.3472 39.126C81.6846 39.3093 81.9266 39.5403 82.0732 39.819L82.2272 38.939H83.4922L82.4142 45.099C82.3116 45.6563 82.1062 46.1513 81.7982 46.584C81.4902 47.024 81.0906 47.3687 80.5992 47.618C80.1079 47.8673 79.5542 47.992 78.9382 47.992C78.4029 47.992 77.9336 47.904 77.5302 47.728C77.1269 47.5593 76.8226 47.3137 76.6172 46.991C76.4119 46.6683 76.3239 46.287 76.3532 45.847H77.5962C77.6329 46.1623 77.7906 46.4153 78.0692 46.606C78.3479 46.804 78.7036 46.903 79.1362 46.903C79.6422 46.903 80.0786 46.749 80.4452 46.441C80.8119 46.133 81.0466 45.6857 81.1492 45.099L81.3252 44.087C81.0612 44.373 80.7312 44.615 80.3352 44.813C79.9392 45.0037 79.5102 45.099 79.0482 45.099C78.5862 45.099 78.1756 44.9963 77.8162 44.791C77.4569 44.5857 77.1746 44.296 76.9692 43.922C76.7712 43.5407 76.6722 43.1043 76.6722 42.613C76.6722 42.393 76.6942 42.1693 76.7382 41.942C76.8482 41.3333 77.0682 40.7943 77.3982 40.325C77.7356 39.8557 78.1462 39.4927 78.6302 39.236C79.1142 38.972 79.6202 38.84 80.1482 38.84ZM81.6992 41.964C81.7286 41.8247 81.7432 41.6743 81.7432 41.513C81.7432 41.0217 81.5966 40.6367 81.3032 40.358C81.0173 40.072 80.6579 39.929 80.2252 39.929C79.9026 39.929 79.5872 40.0097 79.2792 40.171C78.9712 40.325 78.7036 40.556 78.4762 40.864C78.2489 41.1647 78.0986 41.524 78.0252 41.942C77.9959 42.0813 77.9812 42.2317 77.9812 42.393C77.9812 42.8917 78.1242 43.2877 78.4102 43.581C78.7036 43.867 79.0666 44.01 79.4992 44.01C79.8219 44.01 80.1372 43.9293 80.4452 43.768C80.7533 43.6067 81.0209 43.372 81.2482 43.064C81.4756 42.7487 81.6259 42.382 81.6992 41.964Z" fill="#333333"></path><path d="M88.2193 38.84C88.8573 38.84 89.3633 39.0123 89.7373 39.357C90.1187 39.6943 90.3093 40.182 90.3093 40.82C90.3093 40.9813 90.291 41.183 90.2543 41.425L89.6163 45H88.3733L88.9783 41.612C89.0077 41.4067 89.0223 41.26 89.0223 41.172C89.0223 40.7687 88.9087 40.4607 88.6813 40.248C88.4613 40.0353 88.1533 39.929 87.7573 39.929C87.2807 39.929 86.8773 40.0757 86.5473 40.369C86.2247 40.655 86.0193 41.0693 85.9313 41.612V41.579L85.3263 45H84.0723L85.1393 38.939H86.3933L86.2723 39.643C86.5217 39.3937 86.815 39.1993 87.1523 39.06C87.497 38.9133 87.8527 38.84 88.2193 38.84Z" fill="#333333"></path><path d="M96.2737 43.317C96.2591 43.4197 96.2517 43.4857 96.2517 43.515C96.2517 43.669 96.2994 43.7827 96.3947 43.856C96.4901 43.922 96.6477 43.955 96.8677 43.955H97.6377L97.4507 45H96.4607C95.9767 45 95.6064 44.9047 95.3497 44.714C95.0931 44.516 94.9647 44.2043 94.9647 43.779C94.9647 43.6177 94.9794 43.4637 95.0087 43.317L95.6027 39.962H94.8877L95.0637 38.939H95.7897L96.0537 37.432H97.3187L97.0547 38.939H98.5177L98.3417 39.962H96.8677L96.2737 43.317Z" fill="#333333"></path><path d="M101.258 45.099C100.744 45.099 100.293 44.9927 99.9045 44.78C99.5158 44.5673 99.2115 44.2667 98.9915 43.878C98.7788 43.4893 98.6725 43.0457 98.6725 42.547C98.6725 41.865 98.8302 41.2417 99.1455 40.677C99.4682 40.1123 99.9082 39.665 100.466 39.335C101.03 39.005 101.657 38.84 102.347 38.84C102.86 38.84 103.315 38.95 103.711 39.17C104.107 39.3827 104.415 39.6833 104.635 40.072C104.862 40.4533 104.976 40.897 104.976 41.403C104.976 42.085 104.811 42.7083 104.481 43.273C104.151 43.8377 103.703 44.285 103.139 44.615C102.574 44.9377 101.947 45.099 101.258 45.099ZM101.412 44.043C101.83 44.043 102.211 43.9257 102.556 43.691C102.908 43.449 103.183 43.1337 103.381 42.745C103.579 42.349 103.678 41.9273 103.678 41.48C103.678 40.974 103.535 40.5853 103.249 40.314C102.963 40.0353 102.603 39.896 102.171 39.896C101.745 39.896 101.364 40.017 101.027 40.259C100.697 40.4937 100.436 40.8127 100.246 41.216C100.062 41.612 99.9705 42.0373 99.9705 42.492C99.9705 42.9833 100.103 43.3647 100.367 43.636C100.638 43.9073 100.986 44.043 101.412 44.043Z" fill="#333333"></path><path d="M109.183 41.161C109.315 40.413 109.605 39.742 110.052 39.148C110.507 38.554 111.06 38.092 111.713 37.762C112.373 37.4247 113.059 37.256 113.77 37.256C114.584 37.256 115.273 37.4577 115.838 37.861C116.41 38.257 116.773 38.8217 116.927 39.555H115.42C115.281 39.1737 115.053 38.8877 114.738 38.697C114.423 38.499 114.034 38.4 113.572 38.4C113.066 38.4 112.593 38.5137 112.153 38.741C111.72 38.9683 111.354 39.291 111.053 39.709C110.76 40.127 110.565 40.611 110.47 41.161C110.433 41.403 110.415 41.6083 110.415 41.777C110.415 42.437 110.613 42.9613 111.009 43.35C111.405 43.7387 111.933 43.933 112.593 43.933C113.055 43.933 113.48 43.8377 113.869 43.647C114.258 43.449 114.584 43.1593 114.848 42.778H116.355C115.937 43.5113 115.376 44.076 114.672 44.472C113.968 44.868 113.209 45.066 112.395 45.066C111.764 45.066 111.2 44.934 110.701 44.67C110.202 44.406 109.814 44.0357 109.535 43.559C109.256 43.0823 109.117 42.5323 109.117 41.909C109.117 41.6743 109.139 41.425 109.183 41.161Z" fill="#333333"></path><path d="M120.078 45.099C119.564 45.099 119.113 44.9927 118.725 44.78C118.336 44.5673 118.032 44.2667 117.812 43.878C117.599 43.4893 117.493 43.0457 117.493 42.547C117.493 41.865 117.65 41.2417 117.966 40.677C118.288 40.1123 118.728 39.665 119.286 39.335C119.85 39.005 120.477 38.84 121.167 38.84C121.68 38.84 122.135 38.95 122.531 39.17C122.927 39.3827 123.235 39.6833 123.455 40.072C123.682 40.4533 123.796 40.897 123.796 41.403C123.796 42.085 123.631 42.7083 123.301 43.273C122.971 43.8377 122.523 44.285 121.959 44.615C121.394 44.9377 120.767 45.099 120.078 45.099ZM120.232 44.043C120.65 44.043 121.031 43.9257 121.376 43.691C121.728 43.449 122.003 43.1337 122.201 42.745C122.399 42.349 122.498 41.9273 122.498 41.48C122.498 40.974 122.355 40.5853 122.069 40.314C121.783 40.0353 121.423 39.896 120.991 39.896C120.565 39.896 120.184 40.017 119.847 40.259C119.517 40.4937 119.256 40.8127 119.066 41.216C118.882 41.612 118.791 42.0373 118.791 42.492C118.791 42.9833 118.923 43.3647 119.187 43.636C119.458 43.9073 119.806 44.043 120.232 44.043Z" fill="#333333"></path><path d="M124.562 41.942C124.672 41.3333 124.892 40.7943 125.222 40.325C125.56 39.8557 125.97 39.4927 126.454 39.236C126.938 38.972 127.448 38.84 127.983 38.84C128.379 38.84 128.753 38.928 129.105 39.104C129.457 39.2727 129.725 39.5 129.908 39.786L130.425 36.86H131.69L130.249 45H128.984L129.149 44.087C128.885 44.3877 128.555 44.6333 128.159 44.824C127.771 45.0073 127.342 45.099 126.872 45.099C126.41 45.099 126 44.9963 125.64 44.791C125.281 44.5857 124.999 44.296 124.793 43.922C124.595 43.5407 124.496 43.1043 124.496 42.613C124.496 42.393 124.518 42.1693 124.562 41.942ZM129.523 41.964C129.553 41.8247 129.567 41.6743 129.567 41.513C129.567 41.0217 129.421 40.6367 129.127 40.358C128.841 40.072 128.482 39.929 128.049 39.929C127.727 39.929 127.411 40.0097 127.103 40.171C126.795 40.325 126.528 40.556 126.3 40.864C126.073 41.1647 125.923 41.524 125.849 41.942C125.82 42.0813 125.805 42.2317 125.805 42.393C125.805 42.8917 125.948 43.2877 126.234 43.581C126.528 43.867 126.891 44.01 127.323 44.01C127.646 44.01 127.961 43.9293 128.269 43.768C128.577 43.6067 128.845 43.372 129.072 43.064C129.3 42.7487 129.45 42.382 129.523 41.964Z" fill="#333333"></path><path d="M135.593 38.84C136.348 38.84 136.949 39.0527 137.397 39.478C137.851 39.9033 138.079 40.4753 138.079 41.194C138.079 41.3627 138.06 41.5643 138.024 41.799C137.994 41.9603 137.943 42.1583 137.87 42.393H133.239C133.231 42.4443 133.228 42.5213 133.228 42.624C133.228 43.0567 133.36 43.4013 133.624 43.658C133.895 43.9147 134.247 44.043 134.68 44.043C135.362 44.043 135.886 43.7607 136.253 43.196H137.606C137.327 43.7533 136.916 44.2117 136.374 44.571C135.831 44.923 135.204 45.099 134.493 45.099C133.987 45.099 133.543 45 133.162 44.802C132.78 44.604 132.483 44.3217 132.271 43.955C132.058 43.581 131.952 43.1447 131.952 42.646C131.952 42.4333 131.974 42.206 132.018 41.964C132.128 41.3407 132.351 40.7943 132.689 40.325C133.026 39.8483 133.444 39.4817 133.943 39.225C134.449 38.9683 134.999 38.84 135.593 38.84ZM136.77 41.491C136.784 41.359 136.792 41.2637 136.792 41.205C136.792 40.8017 136.656 40.4827 136.385 40.248C136.121 40.0133 135.776 39.896 135.351 39.896C134.903 39.896 134.5 40.039 134.141 40.325C133.781 40.611 133.536 40.9997 133.404 41.491H136.77Z" fill="#333333"></path><path d="M144.414 38.323L144.007 40.644H146.647L146.482 41.612H143.842L143.413 44.021H146.383L146.207 45H141.983L143.336 37.344H147.56L147.384 38.323H144.414Z" fill="#333333"></path><path d="M150.898 41.92L152.306 45H150.887L149.941 42.943L148.346 45H147.037L149.523 42.019L148.104 38.939H149.523L150.469 40.996L152.064 38.939H153.373L150.898 41.92Z" fill="#333333"></path><path d="M155.408 39.83C155.672 39.5513 156.002 39.3167 156.398 39.126C156.802 38.9353 157.234 38.84 157.696 38.84C158.158 38.84 158.569 38.939 158.928 39.137C159.288 39.335 159.566 39.6173 159.764 39.984C159.962 40.3507 160.061 40.7797 160.061 41.271C160.061 41.4837 160.039 41.7073 159.995 41.942C159.885 42.5507 159.662 43.097 159.324 43.581C158.994 44.0577 158.587 44.4317 158.103 44.703C157.627 44.967 157.124 45.099 156.596 45.099C156.134 45.099 155.738 45.0073 155.408 44.824C155.086 44.6333 154.833 44.3987 154.649 44.12L153.989 47.882H152.735L154.308 38.939H155.562L155.408 39.83ZM158.719 41.942C158.749 41.8027 158.763 41.6523 158.763 41.491C158.763 40.9997 158.617 40.6183 158.323 40.347C158.037 40.0683 157.674 39.929 157.234 39.929C156.919 39.929 156.604 40.0097 156.288 40.171C155.98 40.3323 155.713 40.567 155.485 40.875C155.258 41.183 155.108 41.546 155.034 41.964C155.005 42.1033 154.99 42.2537 154.99 42.415C154.99 42.9063 155.133 43.295 155.419 43.581C155.713 43.867 156.076 44.01 156.508 44.01C156.831 44.01 157.146 43.9293 157.454 43.768C157.77 43.5993 158.041 43.3573 158.268 43.042C158.496 42.7267 158.646 42.36 158.719 41.942Z" fill="#333333"></path><path d="M164.392 38.84C165.148 38.84 165.749 39.0527 166.196 39.478C166.651 39.9033 166.878 40.4753 166.878 41.194C166.878 41.3627 166.86 41.5643 166.823 41.799C166.794 41.9603 166.743 42.1583 166.669 42.393H162.038C162.031 42.4443 162.027 42.5213 162.027 42.624C162.027 43.0567 162.159 43.4013 162.423 43.658C162.695 43.9147 163.047 44.043 163.479 44.043C164.161 44.043 164.686 43.7607 165.052 43.196H166.405C166.127 43.7533 165.716 44.2117 165.173 44.571C164.631 44.923 164.004 45.099 163.292 45.099C162.786 45.099 162.343 45 161.961 44.802C161.58 44.604 161.283 44.3217 161.07 43.955C160.858 43.581 160.751 43.1447 160.751 42.646C160.751 42.4333 160.773 42.206 160.817 41.964C160.927 41.3407 161.151 40.7943 161.488 40.325C161.826 39.8483 162.244 39.4817 162.742 39.225C163.248 38.9683 163.798 38.84 164.392 38.84ZM165.569 41.491C165.584 41.359 165.591 41.2637 165.591 41.205C165.591 40.8017 165.456 40.4827 165.184 40.248C164.92 40.0133 164.576 39.896 164.15 39.896C163.703 39.896 163.3 40.039 162.94 40.325C162.581 40.611 162.335 40.9997 162.203 41.491H165.569Z" fill="#333333"></path><path d="M169.619 40.006C169.869 39.6393 170.162 39.3533 170.499 39.148C170.844 38.9427 171.225 38.84 171.643 38.84L171.412 40.138H171.093C170.609 40.138 170.221 40.259 169.927 40.501C169.634 40.743 169.429 41.161 169.311 41.755L168.739 45H167.485L168.552 38.939H169.806L169.619 40.006Z" fill="#333333"></path><path d="M173.467 43.317C173.452 43.4197 173.445 43.4857 173.445 43.515C173.445 43.669 173.493 43.7827 173.588 43.856C173.683 43.922 173.841 43.955 174.061 43.955H174.831L174.644 45H173.654C173.17 45 172.8 44.9047 172.543 44.714C172.286 44.516 172.158 44.2043 172.158 43.779C172.158 43.6177 172.173 43.4637 172.202 43.317L172.796 39.962H172.081L172.257 38.939H172.983L173.247 37.432H174.512L174.248 38.939H175.711L175.535 39.962H174.061L173.467 43.317Z" fill="#333333"></path><path d="M178.033 45.099C177.615 45.099 177.234 45.0293 176.889 44.89C176.544 44.7433 176.273 44.5417 176.075 44.285C175.877 44.021 175.778 43.7203 175.778 43.383C175.778 43.3243 175.785 43.2437 175.8 43.141H177.021C176.992 43.4197 177.076 43.6507 177.274 43.834C177.472 44.0173 177.751 44.109 178.11 44.109C178.462 44.109 178.752 44.0467 178.979 43.922C179.206 43.7973 179.32 43.614 179.32 43.372C179.32 43.1667 179.225 43.0017 179.034 42.877C178.851 42.7523 178.554 42.613 178.143 42.459C177.754 42.305 177.439 42.162 177.197 42.03C176.955 41.898 176.746 41.7183 176.57 41.491C176.394 41.2563 176.306 40.9667 176.306 40.622C176.306 40.27 176.405 39.962 176.603 39.698C176.808 39.4267 177.091 39.2177 177.45 39.071C177.817 38.917 178.235 38.84 178.704 38.84C179.129 38.84 179.507 38.9133 179.837 39.06C180.174 39.1993 180.435 39.401 180.618 39.665C180.809 39.9217 180.904 40.2187 180.904 40.556C180.904 40.6587 180.9 40.7357 180.893 40.787H179.705C179.734 40.501 179.65 40.27 179.452 40.094C179.261 39.918 178.986 39.83 178.627 39.83C178.312 39.83 178.055 39.896 177.857 40.028C177.666 40.16 177.571 40.3397 177.571 40.567C177.571 40.7943 177.67 40.9777 177.868 41.117C178.066 41.249 178.37 41.3957 178.781 41.557C179.155 41.7037 179.459 41.843 179.694 41.975C179.929 42.107 180.13 42.283 180.299 42.503C180.468 42.723 180.552 42.998 180.552 43.328C180.552 43.6873 180.442 44.0027 180.222 44.274C180.009 44.538 179.712 44.7433 179.331 44.89C178.95 45.0293 178.517 45.099 178.033 45.099Z" fill="#333333"></path><path d="M269.144 1.72C269.784 1.72 270.355 1.864 270.856 2.152C271.368 2.44 271.763 2.84 272.04 3.352C272.328 3.85333 272.472 4.424 272.472 5.064C272.472 5.704 272.328 6.28 272.04 6.792C271.763 7.29333 271.368 7.688 270.856 7.976C270.355 8.264 269.784 8.408 269.144 8.408C268.504 8.408 267.928 8.264 267.416 7.976C266.915 7.688 266.52 7.29333 266.232 6.792C265.944 6.28 265.8 5.704 265.8 5.064C265.8 4.424 265.944 3.85333 266.232 3.352C266.52 2.84 266.915 2.44 267.416 2.152C267.928 1.864 268.504 1.72 269.144 1.72ZM269.144 7.672C269.912 7.672 270.525 7.432 270.984 6.952C271.453 6.472 271.688 5.84267 271.688 5.064C271.688 4.28534 271.453 3.656 270.984 3.176C270.525 2.696 269.912 2.456 269.144 2.456C268.365 2.456 267.747 2.696 267.288 3.176C266.829 3.656 266.6 4.28534 266.6 5.064C266.6 5.84267 266.829 6.472 267.288 6.952C267.747 7.432 268.365 7.672 269.144 7.672ZM270.616 4.424C270.616 4.65867 270.557 4.86667 270.44 5.048C270.323 5.21867 270.163 5.34667 269.96 5.432L270.808 6.744H269.592L268.888 5.544H268.776V6.744H267.768V3.304H269.384C269.757 3.304 270.056 3.41067 270.28 3.624C270.504 3.82667 270.616 4.09333 270.616 4.424ZM268.776 4.728H269.32C269.405 4.728 269.475 4.70667 269.528 4.664C269.592 4.61067 269.624 4.54133 269.624 4.456C269.624 4.37067 269.592 4.30667 269.528 4.264C269.475 4.22134 269.405 4.2 269.32 4.2H268.776V4.728Z" fill="#333333"></path><circle cx="32" cy="16" r="16" fill="#007FFF"></circle><path fill-rule="evenodd" clip-rule="evenodd" d="M30.017 25.988L28.5273 25.5466C28.366 25.4997 28.27 25.3239 28.3161 25.1598L33.7221 6.2266C33.7682 6.06254 33.941 5.96488 34.1022 6.01176L35.5919 6.45316C35.7532 6.50003 35.8492 6.67581 35.8031 6.83987L30.3971 25.7731C30.351 25.9411 30.1821 26.0348 30.017 25.988ZM26.8226 21.2576L27.8669 20.1248C27.9859 19.9959 27.9744 19.7928 27.8477 19.6756L23.774 15.9999L27.8477 12.3241C27.9782 12.207 27.9859 12.0038 27.8669 11.8749L26.8226 10.7421C26.7074 10.6171 26.5116 10.6093 26.3887 10.7265L21.0979 15.7733C20.9674 15.8983 20.9674 16.1053 21.0979 16.2303L26.3887 21.2732C26.5116 21.3904 26.7035 21.3826 26.8226 21.2576ZM43.0175 16.2303L37.7305 21.2732C37.6077 21.3904 37.4157 21.3826 37.2967 21.2576L36.2523 20.1248C36.1333 19.9959 36.141 19.7928 36.2715 19.6756L40.3452 15.9999L36.2715 12.3241C36.1448 12.207 36.1333 12.0038 36.2523 11.8749L37.2967 10.7421C37.4118 10.6132 37.6077 10.6093 37.7305 10.7265L43.0175 15.7733C43.148 15.8983 43.148 16.1053 43.0175 16.2303Z" fill="white"></path><circle cx="16" cy="32" r="16" fill="#333333"></circle><path fill-rule="evenodd" clip-rule="evenodd" d="M9 28.8749C9 30.6081 9.61337 32.1893 10.6242 33.3974C11.2402 34.1338 12.2037 35.672 12.571 36.9696L12.573 36.9849L12.5751 37.0001H18.5499L18.5513 36.9901L18.554 36.9696C18.9213 35.672 19.8848 34.1338 20.5008 33.3974C21.5116 32.1893 22.125 30.6081 22.125 28.8749C22.125 25.0707 19.176 21.9883 15.542 22C11.7384 22.0121 9 25.241 9 28.8749ZM12.5818 39.7477C12.5822 39.9934 12.6515 40.234 12.7816 40.4387L13.4189 41.4422C13.64 41.7906 14.0128 42 14.4122 42H16.7132C17.1125 42 17.4854 41.7906 17.7065 41.4422L18.3437 40.4387C18.4738 40.234 18.5433 39.9936 18.5436 39.7477L18.5451 38.2497H12.5799L12.5818 39.7477ZM12.5795 28.8749C12.5795 27.1519 13.9178 25.75 15.5625 25.75C15.8921 25.75 16.1591 25.4703 16.1591 25.125C16.1591 24.7797 15.8921 24.5 15.5625 24.5C13.2597 24.5 11.3864 26.4624 11.3864 28.8749C11.3864 29.2202 11.6533 29.4999 11.983 29.4999C12.3126 29.4999 12.5795 29.2202 12.5795 28.8749Z" fill="white"></path><path d="M17.9265 6.64199C17.9308 6.62859 17.9358 6.61538 17.9394 6.60178C17.945 6.58087 17.949 6.55979 17.9529 6.53869C17.9545 6.52997 17.9568 6.52137 17.9583 6.5126C17.9614 6.49253 17.9631 6.47244 17.9649 6.45233C17.9658 6.4418 17.9673 6.43143 17.9679 6.42093C17.9689 6.40357 17.9684 6.38631 17.9683 6.36899C17.9683 6.35535 17.9687 6.34169 17.9681 6.32794C17.9673 6.31411 17.9654 6.30034 17.9641 6.28655C17.9624 6.2694 17.9611 6.25223 17.9584 6.23508C17.9569 6.22445 17.9541 6.21404 17.9521 6.20351C17.9483 6.18363 17.9447 6.16376 17.9395 6.144C17.9371 6.13484 17.9337 6.12595 17.9311 6.11679C17.925 6.09634 17.9192 6.07586 17.9116 6.05558C17.9058 6.03999 17.8985 6.02493 17.8919 6.00966C17.8862 5.99643 17.8813 5.9831 17.8749 5.97002C17.8608 5.94089 17.845 5.91249 17.8277 5.88468L14.804 1.01513C14.5206 0.558673 13.9067 0.394194 13.433 0.647782C12.9593 0.901309 12.805 1.47695 13.0885 1.93342L14.7884 4.67088C10.8291 3.9905 6.77562 5.77934 4.97492 9.31707C4.28206 10.6785 3.99243 12.1731 4.09774 13.6571C4.09932 13.6802 4.10026 13.7033 4.10213 13.7263C4.20744 15.0558 4.63047 16.3749 5.36617 17.5804C5.39572 17.6288 5.42969 17.6732 5.46615 17.715C5.60394 17.8731 5.78609 17.9837 5.98437 18.0368C6.01507 18.045 6.04612 18.0519 6.07742 18.0574C6.29663 18.0957 6.52846 18.066 6.73453 17.9578C7.21043 17.7077 7.36944 17.1334 7.08961 16.675C6.91613 16.3907 6.76557 16.0982 6.63645 15.8002C5.84729 13.9783 5.88711 11.9387 6.78155 10.1814C8.2033 7.38815 11.4171 5.98187 14.544 6.54048L11.4035 8.22167C10.9298 8.47526 10.7755 9.05084 11.059 9.50732C11.2007 9.73555 11.4251 9.89082 11.6732 9.9573C11.9213 10.0238 12.1932 10.0015 12.43 9.87467L17.477 7.17293C17.484 7.16916 17.4849 7.16849 17.4859 7.16793C17.5133 7.15323 17.5398 7.13728 17.5655 7.12006C17.5729 7.11516 17.5795 7.10959 17.5867 7.1045C17.6052 7.09135 17.6237 7.0781 17.6412 7.06363C17.6514 7.0552 17.6607 7.04605 17.6704 7.03724C17.6838 7.02522 17.6973 7.01351 17.7099 7.00073C17.7218 6.98871 17.7326 6.97595 17.7437 6.96345C17.7531 6.95286 17.7628 6.94265 17.7717 6.93159C17.785 6.91514 17.7968 6.89793 17.8089 6.88075C17.8146 6.87254 17.8208 6.86478 17.8262 6.8563C17.8413 6.833 17.8549 6.80897 17.8677 6.78459C17.8693 6.78146 17.8713 6.77862 17.873 6.77542C17.8731 6.77519 17.8732 6.77489 17.8733 6.77467C17.8876 6.74653 17.9004 6.71781 17.9115 6.6885C17.9174 6.67306 17.9215 6.65742 17.9265 6.64199Z" fill="#999999"></path></g><defs><clipPath id="clip0"><rect width="274" height="48" fill="white"></rect></clipPath></defs></svg> 