<?xml version="1.0" standalone="no"?>
<svg xmlns:xlink="http://www.w3.org/1999/xlink" id="wave" style="transform:rotate(0deg); transition: 0.3s" viewBox="0 0 1440 240" version="1.1" xmlns="http://www.w3.org/2000/svg"><defs><linearGradient id="sw-gradient-0" x1="0" x2="0" y1="1" y2="0"><stop stop-color="rgba(62, 169.425, 243, 1)" offset="0%"/><stop stop-color="rgba(243.936, 243.936, 243.936, 1)" offset="100%"/></linearGradient></defs><path style="transform:translate(0, 0px); opacity:1" fill="url(#sw-gradient-0)" d="M0,24L80,20C160,16,320,8,480,24C640,40,800,80,960,84C1120,88,1280,56,1440,68C1600,80,1760,136,1920,132C2080,128,2240,64,2400,40C2560,16,2720,32,2880,56C3040,80,3200,112,3360,124C3520,136,3680,128,3840,132C4000,136,4160,152,4320,144C4480,136,4640,104,4800,80C4960,56,5120,40,5280,56C5440,72,5600,120,5760,148C5920,176,6080,184,6240,180C6400,176,6560,160,6720,160C6880,160,7040,176,7200,176C7360,176,7520,160,7680,144C7840,128,8000,112,8160,116C8320,120,8480,144,8640,144C8800,144,8960,120,9120,128C9280,136,9440,176,9600,168C9760,160,9920,104,10080,80C10240,56,10400,64,10560,80C10720,96,10880,120,11040,120C11200,120,11360,96,11440,84L11520,72L11520,240L11440,240C11360,240,11200,240,11040,240C10880,240,10720,240,10560,240C10400,240,10240,240,10080,240C9920,240,9760,240,9600,240C9440,240,9280,240,9120,240C8960,240,8800,240,8640,240C8480,240,8320,240,8160,240C8000,240,7840,240,7680,240C7520,240,7360,240,7200,240C7040,240,6880,240,6720,240C6560,240,6400,240,6240,240C6080,240,5920,240,5760,240C5600,240,5440,240,5280,240C5120,240,4960,240,4800,240C4640,240,4480,240,4320,240C4160,240,4000,240,3840,240C3680,240,3520,240,3360,240C3200,240,3040,240,2880,240C2720,240,2560,240,2400,240C2240,240,2080,240,1920,240C1760,240,1600,240,1440,240C1280,240,1120,240,960,240C800,240,640,240,480,240C320,240,160,240,80,240L0,240Z"/><defs><linearGradient id="sw-gradient-1" x1="0" x2="0" y1="1" y2="0"><stop stop-color="rgba(3.585, 46.738, 114.159, 1)" offset="0%"/><stop stop-color="rgba(122.841, 195.388, 232.552, 1)" offset="100%"/></linearGradient></defs><path style="transform:translate(0, 50px); opacity:0.9" fill="url(#sw-gradient-1)" d="M0,0L80,16C160,32,320,64,480,92C640,120,800,144,960,152C1120,160,1280,152,1440,140C1600,128,1760,112,1920,104C2080,96,2240,96,2400,104C2560,112,2720,128,2880,112C3040,96,3200,48,3360,28C3520,8,3680,16,3840,48C4000,80,4160,136,4320,164C4480,192,4640,192,4800,180C4960,168,5120,144,5280,148C5440,152,5600,184,5760,172C5920,160,6080,104,6240,68C6400,32,6560,16,6720,12C6880,8,7040,16,7200,40C7360,64,7520,104,7680,112C7840,120,8000,96,8160,108C8320,120,8480,168,8640,176C8800,184,8960,152,9120,144C9280,136,9440,152,9600,136C9760,120,9920,72,10080,52C10240,32,10400,40,10560,44C10720,48,10880,48,11040,52C11200,56,11360,64,11440,68L11520,72L11520,240L11440,240C11360,240,11200,240,11040,240C10880,240,10720,240,10560,240C10400,240,10240,240,10080,240C9920,240,9760,240,9600,240C9440,240,9280,240,9120,240C8960,240,8800,240,8640,240C8480,240,8320,240,8160,240C8000,240,7840,240,7680,240C7520,240,7360,240,7200,240C7040,240,6880,240,6720,240C6560,240,6400,240,6240,240C6080,240,5920,240,5760,240C5600,240,5440,240,5280,240C5120,240,4960,240,4800,240C4640,240,4480,240,4320,240C4160,240,4000,240,3840,240C3680,240,3520,240,3360,240C3200,240,3040,240,2880,240C2720,240,2560,240,2400,240C2240,240,2080,240,1920,240C1760,240,1600,240,1440,240C1280,240,1120,240,960,240C800,240,640,240,480,240C320,240,160,240,80,240L0,240Z"/></svg>